<svg xmlns="http://www.w3.org/2000/svg" viewBox="0 0 1042 380" font-family="ui-sans-serif, system-ui, -apple-system, 'Segoe UI', sans-serif">
  <title>Harborline Realty — org chart</title>

  <!-- connectors: root -> bus -> children, plus marketing -> photography (elbows) -->
  <g fill="none" stroke="#c7c9f4" stroke-width="1.5">
    <path d="M521 86 V128" />
    <path d="M96 128 H946" />
    <path d="M96 128 V170" />
    <path d="M266 128 V170" />
    <path d="M436 128 V170" />
    <path d="M606 128 V170" />
    <path d="M776 128 V170" />
    <path d="M946 128 V170" />
    <path d="M436 228 V300" />
  </g>

  <!-- root -->
  <g>
    <rect x="445" y="28" width="152" height="58" rx="10" fill="#4f46e5" />
    <text x="521" y="58" text-anchor="middle" font-size="13" font-weight="600" fill="#ffffff">Marina</text>
    <text x="521" y="74" text-anchor="middle" font-size="9.5" fill="#e0e0fb">Principal Broker</text>
  </g>

  <!-- direct reports -->
  <g>
    <rect x="20" y="170" width="152" height="58" rx="10" fill="#ffffff" stroke="#4f46e5" stroke-width="1.5" />
    <text x="96" y="200" text-anchor="middle" font-size="13" font-weight="600" fill="#1f2430">Sabine</text>
    <text x="96" y="216" text-anchor="middle" font-size="9.5" fill="#6b7280">Listing Agent</text>
  </g>
  <g>
    <rect x="190" y="170" width="152" height="58" rx="10" fill="#ffffff" stroke="#4f46e5" stroke-width="1.5" />
    <text x="266" y="200" text-anchor="middle" font-size="13" font-weight="600" fill="#1f2430">Elias</text>
    <text x="266" y="216" text-anchor="middle" font-size="9.5" fill="#6b7280">Buyer's Agent</text>
  </g>
  <g>
    <rect x="360" y="170" width="152" height="58" rx="10" fill="#ffffff" stroke="#4f46e5" stroke-width="1.5" />
    <text x="436" y="200" text-anchor="middle" font-size="13" font-weight="600" fill="#1f2430">Juno</text>
    <text x="436" y="216" text-anchor="middle" font-size="9.5" fill="#6b7280">Marketing Lead</text>
  </g>
  <g>
    <rect x="530" y="170" width="152" height="58" rx="10" fill="#ffffff" stroke="#4f46e5" stroke-width="1.5" />
    <text x="606" y="200" text-anchor="middle" font-size="13" font-weight="600" fill="#1f2430">Priya</text>
    <text x="606" y="216" text-anchor="middle" font-size="9.5" fill="#6b7280">Transaction Coordinator</text>
  </g>
  <g>
    <rect x="700" y="170" width="152" height="58" rx="10" fill="#ffffff" stroke="#4f46e5" stroke-width="1.5" />
    <text x="776" y="200" text-anchor="middle" font-size="13" font-weight="600" fill="#1f2430">Dev</text>
    <text x="776" y="216" text-anchor="middle" font-size="9.5" fill="#6b7280">Market Analyst</text>
  </g>
  <g>
    <rect x="870" y="170" width="152" height="58" rx="10" fill="#ffffff" stroke="#4f46e5" stroke-width="1.5" />
    <text x="946" y="200" text-anchor="middle" font-size="13" font-weight="600" fill="#1f2430">Noor</text>
    <text x="946" y="216" text-anchor="middle" font-size="9.5" fill="#6b7280">Client Concierge</text>
  </g>

  <!-- marketing's report -->
  <g>
    <rect x="360" y="300" width="152" height="58" rx="10" fill="#ffffff" stroke="#4f46e5" stroke-width="1.5" />
    <text x="436" y="330" text-anchor="middle" font-size="13" font-weight="600" fill="#1f2430">Rhys</text>
    <text x="436" y="346" text-anchor="middle" font-size="9.5" fill="#6b7280">Photography Coordinator</text>
  </g>
</svg>
