<svg xmlns="http://www.w3.org/2000/svg" viewBox="0 0 960 320" font-family="Segoe UI, Helvetica, Arial, sans-serif">
  <!-- root: content-strategist -->
  <rect x="380" y="40" width="200" height="64" rx="10" fill="#4f46e5"/>
  <text x="480" y="67" text-anchor="middle" font-size="15" font-weight="600" fill="#ffffff">Marlowe</text>
  <text x="480" y="88" text-anchor="middle" font-size="11" fill="#c7d2fe">Head of Content Strategy</text>

  <!-- elbow connectors -->
  <g fill="none" stroke="#a5b4fc" stroke-width="1.5">
    <path d="M480 104 V150"/>
    <path d="M120 150 H840"/>
    <path d="M120 150 V196"/>
    <path d="M300 150 V196"/>
    <path d="M480 150 V196"/>
    <path d="M660 150 V196"/>
    <path d="M840 150 V196"/>
  </g>

  <!-- children -->
  <g>
    <rect x="40" y="196" width="160" height="64" rx="10" fill="#ffffff" stroke="#4f46e5" stroke-width="1.5"/>
    <text x="120" y="223" text-anchor="middle" font-size="14" font-weight="600" fill="#1e1b4b">Piper</text>
    <text x="120" y="243" text-anchor="middle" font-size="10.5" fill="#6366f1">Trend Scout</text>
  </g>
  <g>
    <rect x="220" y="196" width="160" height="64" rx="10" fill="#ffffff" stroke="#4f46e5" stroke-width="1.5"/>
    <text x="300" y="223" text-anchor="middle" font-size="14" font-weight="600" fill="#1e1b4b">Arden</text>
    <text x="300" y="243" text-anchor="middle" font-size="10.5" fill="#6366f1">Search Performance Analyst</text>
  </g>
  <g>
    <rect x="400" y="196" width="160" height="64" rx="10" fill="#ffffff" stroke="#4f46e5" stroke-width="1.5"/>
    <text x="480" y="223" text-anchor="middle" font-size="14" font-weight="600" fill="#1e1b4b">Ines</text>
    <text x="480" y="243" text-anchor="middle" font-size="10.5" fill="#6366f1">Senior Content Writer</text>
  </g>
  <g>
    <rect x="580" y="196" width="160" height="64" rx="10" fill="#ffffff" stroke="#4f46e5" stroke-width="1.5"/>
    <text x="660" y="223" text-anchor="middle" font-size="14" font-weight="600" fill="#1e1b4b">Rio</text>
    <text x="660" y="243" text-anchor="middle" font-size="10.5" fill="#6366f1">Short-Form Video Producer</text>
  </g>
  <g>
    <rect x="760" y="196" width="160" height="64" rx="10" fill="#ffffff" stroke="#4f46e5" stroke-width="1.5"/>
    <text x="840" y="223" text-anchor="middle" font-size="14" font-weight="600" fill="#1e1b4b">Sable</text>
    <text x="840" y="243" text-anchor="middle" font-size="10.5" fill="#6366f1">Lead Magnet Specialist</text>
  </g>
</svg>
