<svg xmlns="http://www.w3.org/2000/svg" viewBox="0 0 920 372" font-family="system-ui, sans-serif">
  <!-- connectors -->
  <g fill="none" stroke="#4f46e5" stroke-width="1.5">
    <path d="M460 76 V116 H170 V156" />
    <path d="M460 76 V156" />
    <path d="M460 76 V116 H740 V156" />
    <path d="M170 212 V292" />
    <path d="M460 212 V292" />
    <path d="M740 212 V252 H644 V292" />
    <path d="M740 212 V252 H828 V292" />
  </g>
  <!-- nodes -->
  <g>
    <!-- studio-director -->
    <rect x="376" y="20" width="168" height="56" rx="10" fill="#ffffff" stroke="#4f46e5" stroke-width="1.5" />
    <text x="460" y="44" text-anchor="middle" font-size="13" font-weight="600" fill="#111827">Mara Voss</text>
    <text x="460" y="61" text-anchor="middle" font-size="11" fill="#4f46e5">Studio Director</text>

    <!-- game-designer -->
    <rect x="86" y="156" width="168" height="56" rx="10" fill="#ffffff" stroke="#4f46e5" stroke-width="1.5" />
    <text x="170" y="180" text-anchor="middle" font-size="13" font-weight="600" fill="#111827">Theo Lang</text>
    <text x="170" y="197" text-anchor="middle" font-size="11" fill="#4f46e5">Game Designer</text>

    <!-- gameplay-programmer -->
    <rect x="376" y="156" width="168" height="56" rx="10" fill="#ffffff" stroke="#4f46e5" stroke-width="1.5" />
    <text x="460" y="180" text-anchor="middle" font-size="13" font-weight="600" fill="#111827">Priya Nair</text>
    <text x="460" y="197" text-anchor="middle" font-size="11" fill="#4f46e5">Gameplay Programmer</text>

    <!-- art-director -->
    <rect x="656" y="156" width="168" height="56" rx="10" fill="#ffffff" stroke="#4f46e5" stroke-width="1.5" />
    <text x="740" y="180" text-anchor="middle" font-size="13" font-weight="600" fill="#111827">Iris Calloway</text>
    <text x="740" y="197" text-anchor="middle" font-size="11" fill="#4f46e5">Art Director</text>

    <!-- level-designer -->
    <rect x="86" y="292" width="168" height="56" rx="10" fill="#ffffff" stroke="#4f46e5" stroke-width="1.5" />
    <text x="170" y="316" text-anchor="middle" font-size="13" font-weight="600" fill="#111827">Dmitri Fokin</text>
    <text x="170" y="333" text-anchor="middle" font-size="11" fill="#4f46e5">Level Designer</text>

    <!-- qa-tester -->
    <rect x="376" y="292" width="168" height="56" rx="10" fill="#ffffff" stroke="#4f46e5" stroke-width="1.5" />
    <text x="460" y="316" text-anchor="middle" font-size="13" font-weight="600" fill="#111827">June Park</text>
    <text x="460" y="333" text-anchor="middle" font-size="11" fill="#4f46e5">QA Tester</text>

    <!-- pixel-artist -->
    <rect x="564" y="292" width="160" height="56" rx="10" fill="#ffffff" stroke="#4f46e5" stroke-width="1.5" />
    <text x="644" y="316" text-anchor="middle" font-size="13" font-weight="600" fill="#111827">Rafa Ortiz</text>
    <text x="644" y="333" text-anchor="middle" font-size="11" fill="#4f46e5">Pixel Artist</text>

    <!-- sound-designer -->
    <rect x="748" y="292" width="160" height="56" rx="10" fill="#ffffff" stroke="#4f46e5" stroke-width="1.5" />
    <text x="828" y="316" text-anchor="middle" font-size="13" font-weight="600" fill="#111827">Wren Okafor</text>
    <text x="828" y="333" text-anchor="middle" font-size="11" fill="#4f46e5">Sound Designer</text>
  </g>
</svg>
