<svg xmlns="http://www.w3.org/2000/svg" viewBox="0 0 940 300" font-family="system-ui, -apple-system, 'Segoe UI', sans-serif">
  <!-- Brightloop Marketing — org chart -->
  <g fill="none" stroke="#4f46e5" stroke-width="1.5">
    <path d="M470 88 V130 H105 V170" />
    <path d="M470 88 V130 H287 V170" />
    <path d="M470 88 V170" />
    <path d="M470 88 V130 H653 V170" />
    <path d="M470 88 V130 H835 V170" />
  </g>

  <!-- Creative Director (root) -->
  <g>
    <rect x="380" y="30" width="180" height="58" rx="10" fill="#ffffff" stroke="#4f46e5" stroke-width="1.5" />
    <text x="470" y="55" text-anchor="middle" font-size="14" font-weight="600" fill="#111827">Sable Quinn</text>
    <text x="470" y="73" text-anchor="middle" font-size="11" fill="#6b7280">Creative Director</text>
  </g>

  <!-- Content Strategist -->
  <g>
    <rect x="20" y="170" width="170" height="58" rx="10" fill="#ffffff" stroke="#4f46e5" stroke-width="1.5" />
    <text x="105" y="195" text-anchor="middle" font-size="14" font-weight="600" fill="#111827">Marisol Deng</text>
    <text x="105" y="213" text-anchor="middle" font-size="11" fill="#6b7280">Content Strategist</text>
  </g>

  <!-- SEO Specialist -->
  <g>
    <rect x="202" y="170" width="170" height="58" rx="10" fill="#ffffff" stroke="#4f46e5" stroke-width="1.5" />
    <text x="287" y="195" text-anchor="middle" font-size="14" font-weight="600" fill="#111827">Rowan Ellery</text>
    <text x="287" y="213" text-anchor="middle" font-size="11" fill="#6b7280">SEO Specialist</text>
  </g>

  <!-- Brand Designer -->
  <g>
    <rect x="385" y="170" width="170" height="58" rx="10" fill="#ffffff" stroke="#4f46e5" stroke-width="1.5" />
    <text x="470" y="195" text-anchor="middle" font-size="14" font-weight="600" fill="#111827">Yusuf Adeyemi</text>
    <text x="470" y="213" text-anchor="middle" font-size="11" fill="#6b7280">Brand Designer</text>
  </g>

  <!-- Growth Marketer -->
  <g>
    <rect x="568" y="170" width="170" height="58" rx="10" fill="#ffffff" stroke="#4f46e5" stroke-width="1.5" />
    <text x="653" y="195" text-anchor="middle" font-size="14" font-weight="600" fill="#111827">Deshawn Vale</text>
    <text x="653" y="213" text-anchor="middle" font-size="11" fill="#6b7280">Growth Marketer</text>
  </g>

  <!-- Social Media Manager -->
  <g>
    <rect x="750" y="170" width="170" height="58" rx="10" fill="#ffffff" stroke="#4f46e5" stroke-width="1.5" />
    <text x="835" y="195" text-anchor="middle" font-size="14" font-weight="600" fill="#111827">Talia Brooks</text>
    <text x="835" y="213" text-anchor="middle" font-size="11" fill="#6b7280">Social Media Manager</text>
  </g>
</svg>
