<svg xmlns="http://www.w3.org/2000/svg" viewBox="0 0 900 240" font-family="system-ui, -apple-system, 'Segoe UI', sans-serif">
  <!-- connectors -->
  <g stroke="#4f46e5" stroke-width="1.5" fill="none" stroke-opacity="0.6">
    <line x1="450" y1="88" x2="450" y2="118" />
    <line x1="98" y1="118" x2="802" y2="118" />
    <line x1="98" y1="118" x2="98" y2="148" />
    <line x1="274" y1="118" x2="274" y2="148" />
    <line x1="450" y1="118" x2="450" y2="148" />
    <line x1="626" y1="118" x2="626" y2="148" />
    <line x1="802" y1="118" x2="802" y2="148" />
  </g>

  <!-- root: ciso -->
  <rect x="355" y="20" width="190" height="68" rx="10" fill="#4f46e5" />
  <text x="450" y="46" text-anchor="middle" font-size="13" font-weight="600" fill="#ffffff">Halvard Strand</text>
  <text x="450" y="62" text-anchor="middle" font-size="10" fill="#e0e7ff">Chief Information</text>
  <text x="450" y="75" text-anchor="middle" font-size="10" fill="#e0e7ff">Security Officer</text>

  <!-- appsec-auditor -->
  <rect x="18" y="148" width="160" height="68" rx="10" fill="#ffffff" stroke="#4f46e5" stroke-opacity="0.45" />
  <text x="98" y="174" text-anchor="middle" font-size="13" font-weight="600" fill="#1f2937">Imani Delacroix</text>
  <text x="98" y="190" text-anchor="middle" font-size="10" fill="#6b7280">Application Security</text>
  <text x="98" y="203" text-anchor="middle" font-size="10" fill="#6b7280">Auditor</text>

  <!-- infra-auditor -->
  <rect x="194" y="148" width="160" height="68" rx="10" fill="#ffffff" stroke="#4f46e5" stroke-opacity="0.45" />
  <text x="274" y="174" text-anchor="middle" font-size="13" font-weight="600" fill="#1f2937">Rasmus Kilde</text>
  <text x="274" y="190" text-anchor="middle" font-size="10" fill="#6b7280">Infrastructure Security</text>
  <text x="274" y="203" text-anchor="middle" font-size="10" fill="#6b7280">Auditor</text>

  <!-- threat-modeler -->
  <rect x="370" y="148" width="160" height="68" rx="10" fill="#ffffff" stroke="#4f46e5" stroke-opacity="0.45" />
  <text x="450" y="174" text-anchor="middle" font-size="13" font-weight="600" fill="#1f2937">Sylvie Marchetti</text>
  <text x="450" y="196" text-anchor="middle" font-size="10" fill="#6b7280">Threat Modeler</text>

  <!-- pentest-planner -->
  <rect x="546" y="148" width="160" height="68" rx="10" fill="#ffffff" stroke="#4f46e5" stroke-opacity="0.45" />
  <text x="626" y="174" text-anchor="middle" font-size="13" font-weight="600" fill="#1f2937">Dario Vane</text>
  <text x="626" y="190" text-anchor="middle" font-size="10" fill="#6b7280">Penetration Test</text>
  <text x="626" y="203" text-anchor="middle" font-size="10" fill="#6b7280">Planner</text>

  <!-- report-writer -->
  <rect x="722" y="148" width="160" height="68" rx="10" fill="#ffffff" stroke="#4f46e5" stroke-opacity="0.45" />
  <text x="802" y="174" text-anchor="middle" font-size="13" font-weight="600" fill="#1f2937">Nell Farrow</text>
  <text x="802" y="196" text-anchor="middle" font-size="10" fill="#6b7280">Security Report Writer</text>
</svg>
